<svg id="Layer_1" enable-background="new 0 0 512 512" height="512" viewBox="0 0 512 512" width="512" xmlns="http://www.w3.org/2000/svg"><g><path d="m72 201.303v138.696c0 5.108 2.883 9.778 7.446 12.059l148.047 74.022c1.866.933 3.924 1.419 6.01 1.419h193.041c7.432 0 13.456-6.034 13.456-13.478v-177.998c0-3.999-1.773-7.791-4.839-10.352l-82.665-69.045c-2.419-2.02-5.468-3.127-8.618-3.127h-207.902c-2.693 0-5.325.81-7.554 2.324l-50.52 34.325c-3.691 2.509-5.902 6.687-5.902 11.155z" fill="#ffde5c"/><path d="m435.161 225.671-82.665-69.045c-2.419-2.02-5.468-3.127-8.617-3.127h-30c3.149 0 6.199 1.106 8.617 3.127l82.665 69.045c3.066 2.561 4.839 6.353 4.839 10.352v177.998c0 7.444-6.024 13.479-13.456 13.479h30c7.432 0 13.456-6.034 13.456-13.479v-177.998c0-3.999-1.772-7.791-4.839-10.352z" fill="#ffc736"/><path d="m440 269.433h32.5v120.385h-32.5z" fill="#497285"/><g fill="#ffde5c"><path d="m488.5 421.626c-8.837 0-16-7.163-16-16v-152c0-8.837 7.163-16 16-16 8.837 0 16 7.163 16 16v152c0 8.836-7.163 16-16 16z"/><path d="m23.5 365.5c-8.837 0-16-7.163-16-16v-152c0-8.837 7.163-16 16-16 8.837 0 16 7.163 16 16v152c0 8.837-7.163 16-16 16z"/><path d="m151.955 100.5c0-8.837 7.163-16 16-16h152c8.837 0 16 7.163 16 16 0 8.837-7.163 16-16 16h-152c-8.836 0-16-7.163-16-16z"/></g><path d="m319.955 84.5h-30c8.837 0 16 7.163 16 16 0 8.836-7.163 16-16 16h30c8.837 0 16-7.164 16-16 0-8.837-7.163-16-16-16z" fill="#ffc736"/><path d="m228.955 116.5h30v37h-30z" fill="#497285"/><path d="m40.75 254.912h30v32.5h-30z" fill="#497285" transform="matrix(0 1 -1 0 326.912 215.412)"/><path d="m287.845 215.412-72.096 51.579c-1.712 1.225-1.934 3.686-.47 5.197l18.123 18.704c.872.9 1.186 2.203.821 3.402l-16.128 52.857c-.947 3.104 2.531 5.675 5.221 3.86l76.178-51.42c1.752-1.183 2.035-3.65.596-5.199l-22.437-24.148c-.863-.929-1.146-2.256-.736-3.456l16.193-47.462c1.079-3.17-2.542-5.862-5.265-3.914z" fill="#f1f1f1"/><g><path d="m504.5 295.68c4.143 0 7.5-3.357 7.5-7.5v-34.554c0-12.958-10.542-23.5-23.5-23.5s-23.5 10.542-23.5 23.5v8.308h-17.5v-25.91c0-6.24-2.745-12.111-7.531-16.107l-82.665-69.045c-3.76-3.142-8.528-4.871-13.425-4.871h-77.424v-22h53.5c12.958 0 23.5-10.542 23.5-23.5s-10.542-23.501-23.5-23.501h-96.185c-4.143 0-7.5 3.357-7.5 7.5s3.357 7.5 7.5 7.5h96.186c4.687 0 8.5 3.813 8.5 8.5s-3.813 8.5-8.5 8.5h-152c-4.687 0-8.5-3.813-8.5-8.5s3.813-8.5 8.5-8.5h23.814c4.143 0 7.5-3.357 7.5-7.5s-3.357-7.5-7.5-7.5h-23.814c-12.958 0-23.5 10.542-23.5 23.5s10.542 23.5 23.5 23.5h53.5v22h-85.479c-4.214 0-8.284 1.252-11.769 3.62l-50.521 34.325c-5.752 3.909-9.187 10.398-9.187 17.358v47.358h-17.5v-51.161c0-12.958-10.542-23.5-23.5-23.5s-23.5 10.542-23.5 23.5v152c0 12.958 10.542 23.5 23.5 23.5s23.5-10.542 23.5-23.5v-55.838h17.5v46.337c0 8.002 4.442 15.193 11.592 18.768l148.046 74.021c2.892 1.447 6.13 2.212 9.365 2.212h22.497c4.143 0 7.5-3.357 7.5-7.5s-3.357-7.5-7.5-7.5h-22.497c-.917 0-1.835-.217-2.655-.627l-148.048-74.022c-2.035-1.018-3.3-3.068-3.3-5.352v-138.695c0-1.986.979-3.838 2.617-4.951l50.521-34.325c.988-.672 2.143-1.027 3.338-1.027h207.902c1.389 0 2.741.491 3.81 1.383l82.665 69.046c1.364 1.139 2.146 2.813 2.146 4.595v177.998c0 3.297-2.672 5.979-5.956 5.979h-138.466c-4.143 0-7.5 3.357-7.5 7.5s3.357 7.5 7.5 7.5h138.467c11.556 0 20.956-9.411 20.956-20.979v-16.703h17.5v8.308c0 12.958 10.542 23.5 23.5 23.5s23.5-10.542 23.5-23.5v-85.448c0-4.143-3.357-7.5-7.5-7.5s-7.5 3.357-7.5 7.5v85.446c0 4.687-3.813 8.5-8.5 8.5s-8.5-3.813-8.5-8.5v-152c0-4.687 3.813-8.5 8.5-8.5s8.5 3.813 8.5 8.5v34.554c0 4.142 3.357 7.5 7.5 7.5zm-472.5 53.82c0 4.687-3.813 8.5-8.5 8.5s-8.5-3.813-8.5-8.5v-152c0-4.687 3.813-8.5 8.5-8.5s8.5 3.813 8.5 8.5zm15-70.838v-15h17.5v15zm189.455-132.662v-22h15v22zm211.045 236.318v-105.384h17.5v105.385h-17.5z"/><path d="m214.882 356.957c1.955 1.444 4.225 2.17 6.499 2.17 2.122 0 4.249-.632 6.129-1.899l76.179-51.421c2.654-1.791 4.385-4.643 4.75-7.824.364-3.181-.677-6.351-2.856-8.694l-20.786-22.373 15.409-45.167c1.543-4.519.005-9.468-3.826-12.316-3.832-2.851-9.016-2.897-12.897-.119 0 0 0 0-.001 0l-72.096 51.579c-2.594 1.854-4.245 4.74-4.532 7.916s.821 6.311 3.039 8.6l16.458 16.986-15.431 50.57c-1.371 4.492.184 9.2 3.962 11.992zm9.059-86.605 57.986-41.484-12.111 35.499c-1.302 3.817-.406 8.024 2.341 10.982l19.211 20.678-62.76 42.362 12.786-41.902c1.163-3.809.165-7.951-2.606-10.813z"/></g></g></svg>